<svg width="24" height="24" viewBox="0 0 24 24" fill="none" xmlns="http://www.w3.org/2000/svg">
<path fill-rule="evenodd" clip-rule="evenodd" d="M14.7047 8.3945L10.9207 13.3635L9.28765 11.2775C8.94765 10.8415 8.31765 10.7655 7.88365 11.1065C7.44865 11.4465 7.37165 12.0755 7.71265 12.5095L10.1437 15.6165C10.3337 15.8585 10.6237 15.9995 10.9317 15.9995H10.9387C11.2477 15.9985 11.5397 15.8525 11.7267 15.6055L16.2957 9.6055C16.6307 9.1655 16.5457 8.5395 16.1057 8.2045C15.6647 7.8695 15.0387 7.9555 14.7047 8.3945ZM12 20C7.58903 20 4.00003 16.411 4.00003 12C4.00003 7.589 7.58903 4 12 4C16.411 4 20 7.589 20 12C20 16.411 16.411 20 12 20ZM12 2C6.477 2 2 6.478 2 12C2 17.522 6.477 22 12 22C17.523 22 22 17.522 22 12C22 6.478 17.523 2 12 2Z" fill="#00D789"/>
<mask id="mask0" mask-type="alpha" maskUnits="userSpaceOnUse" x="2" y="2" width="20" height="20">
<path fill-rule="evenodd" clip-rule="evenodd" d="M14.7047 8.3945L10.9207 13.3635L9.28765 11.2775C8.94765 10.8415 8.31765 10.7655 7.88365 11.1065C7.44865 11.4465 7.37165 12.0755 7.71265 12.5095L10.1437 15.6165C10.3337 15.8585 10.6237 15.9995 10.9317 15.9995H10.9387C11.2477 15.9985 11.5397 15.8525 11.7267 15.6055L16.2957 9.6055C16.6307 9.1655 16.5457 8.5395 16.1057 8.2045C15.6647 7.8695 15.0387 7.9555 14.7047 8.3945ZM12 20C7.58903 20 4.00003 16.411 4.00003 12C4.00003 7.589 7.58903 4 12 4C16.411 4 20 7.589 20 12C20 16.411 16.411 20 12 20ZM12 2C6.477 2 2 6.478 2 12C2 17.522 6.477 22 12 22C17.523 22 22 17.522 22 12C22 6.478 17.523 2 12 2Z" fill="white"/>
</mask>
<g mask="url(#mask0)">
</g>
</svg>
