<svg width="66" height="53" viewBox="0 0 66 53" fill="none" xmlns="http://www.w3.org/2000/svg">
<path fill-rule="evenodd" clip-rule="evenodd" d="M0 11.9739V13.3841C0 13.9798 0.486091 14.4634 1.0802 14.4634C1.67431 14.4634 2.10608 13.9798 2.10608 13.3841V11.9739C2.10608 11.3782 1.67431 10.8945 1.0802 10.8945C0.486091 10.8945 0 11.3782 0 11.9739Z" fill="black"/>
<path fill-rule="evenodd" clip-rule="evenodd" d="M24.6304 16.6742H42.374C42.9414 16.6742 43.4575 16.1933 43.4575 15.5988C43.4575 15.0042 42.9414 14.5234 42.374 14.5234H24.6304C24.0114 14.5234 23.5469 15.0042 23.5469 15.5988C23.5469 16.1933 24.0114 16.6742 24.6304 16.6742Z" fill="black"/>
<path fill-rule="evenodd" clip-rule="evenodd" d="M0 14.6774V24.3708C0 28.8662 3.61868 32.5216 8.10152 32.5216H57.8447C62.3275 32.5216 66 28.8662 66 24.3708V8.15079C66 3.65029 62.3275 0 57.8447 0H8.10152C3.61868 0 0 3.65029 0 8.15079C0 8.74645 0.486091 9.23003 1.0802 9.23003C1.67432 9.23003 2.10608 8.74645 2.10608 8.15079C2.10608 4.8416 4.8069 2.15351 8.10152 2.15351H57.8447C61.1393 2.15351 63.8396 4.8416 63.8396 8.15079V24.3708C63.8396 27.68 61.1393 30.3681 57.8447 30.3681H8.10152C4.8069 30.3681 2.10608 27.68 2.10608 24.3708V14.6774C2.10608 14.0818 1.67432 13.5982 1.0802 13.5982C0.486091 13.5982 0 14.0818 0 14.6774Z" fill="black"/>
<path fill-rule="evenodd" clip-rule="evenodd" d="M1.083 23.9413H64.4246C64.992 23.9413 65.5081 23.4604 65.5081 22.8658C65.5081 22.2712 64.992 21.7852 64.4246 21.7852H1.083C0.464029 21.7852 0 22.2712 0 22.8658C0 23.4604 0.464029 23.9413 1.083 23.9413Z" fill="black"/>
<path fill-rule="evenodd" clip-rule="evenodd" d="M64.3219 25.418H1.083C0.515611 25.418 0 25.904 0 26.4934C0 27.088 0.515611 27.5741 1.083 27.5741H64.3219C64.8893 27.5741 65.4049 27.088 65.4049 26.4934C65.4049 25.904 64.8893 25.418 64.3219 25.418Z" fill="black"/>
<path fill-rule="evenodd" clip-rule="evenodd" d="M60.284 14.5234C58.9945 14.5234 57.9629 15.5575 57.9629 16.8345C57.9629 18.1116 58.9945 19.1508 60.284 19.1508C61.522 19.1508 62.5538 18.1116 62.5538 16.8345C62.5538 15.5575 61.522 14.5234 60.284 14.5234ZM60.284 16.6794C60.3356 16.6794 60.4392 16.7466 60.4392 16.8345C60.4392 16.9224 60.3356 16.9947 60.284 16.9947C60.1809 16.9947 60.1294 16.9224 60.1294 16.8345C60.1294 16.7466 60.1809 16.6794 60.284 16.6794Z" fill="black"/>
<path fill-rule="evenodd" clip-rule="evenodd" d="M11.1544 36.4382C9.65855 37.2396 8.88453 38.1598 8.52346 39.0802C8.16239 39.9953 8.21428 40.957 8.57535 41.9394C8.93641 43.113 9.76181 44.3332 10.484 45.5275C10.845 46.1376 11.206 46.7374 11.4123 47.3268C11.6186 47.7663 11.7215 48.1851 11.6183 48.5935C11.5668 48.9658 11.3088 49.3018 10.8446 49.6276C10.2772 50.0929 9.34876 50.5066 8.00765 50.8892C7.44026 51.0547 7.13107 51.6544 7.28582 52.2283C7.49214 52.797 8.05933 53.1228 8.62673 52.9574C12.1858 51.9233 13.424 50.4445 13.7335 49.0123C13.9914 47.5905 13.2693 45.9929 12.2893 44.4004C11.7735 43.5111 11.1543 42.6115 10.7932 41.7223C10.4837 41.076 10.2774 40.4451 10.5353 39.8454C10.7417 39.2973 11.2573 38.8165 12.1341 38.3408C12.7015 38.0616 12.8565 37.4101 12.5986 36.8879C12.3407 36.3606 11.6702 36.159 11.1544 36.4382Z" fill="black"/>
<path fill-rule="evenodd" clip-rule="evenodd" d="M23.8341 36.4382C22.3382 37.2396 21.5642 38.1598 21.2032 39.0802C20.8421 39.9953 20.894 40.957 21.255 41.9394C21.6161 43.113 22.4415 44.3332 23.1636 45.5275C23.5247 46.1376 23.8857 46.7374 24.092 47.3268C24.2983 47.7663 24.4012 48.1851 24.298 48.5935C24.2464 48.9658 23.9885 49.3018 23.5243 49.6276C22.9569 50.0929 22.0284 50.5066 20.6873 50.8892C20.1199 51.0547 19.8108 51.6544 19.9655 52.2283C20.1718 52.797 20.739 53.1228 21.3064 52.9574C24.8655 51.9233 26.1037 50.4445 26.4132 49.0123C26.6711 47.5905 25.949 45.9929 24.969 44.4004C24.4532 43.5111 23.834 42.6115 23.4729 41.7223C23.1634 41.076 22.9571 40.4451 23.215 39.8454C23.4213 39.2973 23.937 38.8165 24.8138 38.3408C25.3812 38.0616 25.5362 37.4101 25.2783 36.8879C25.0204 36.3606 24.3499 36.159 23.8341 36.4382Z" fill="black"/>
<path fill-rule="evenodd" clip-rule="evenodd" d="M34.7013 36.4382C33.2054 37.2396 32.4314 38.1598 32.0703 39.0802C31.7093 39.9953 31.7612 40.957 32.1222 41.9394C32.4833 43.113 33.3087 44.3332 34.0308 45.5275C34.3919 46.1376 34.7529 46.7374 34.9592 47.3268C35.1655 47.7663 35.2684 48.1851 35.1652 48.5935C35.1136 48.9658 34.8557 49.3018 34.3915 49.6276C33.8241 50.0929 32.8956 50.5066 31.5545 50.8892C30.9871 51.0547 30.6779 51.6544 30.8327 52.2283C31.039 52.797 31.6062 53.1228 32.1736 52.9574C35.7327 51.9233 36.9709 50.4445 37.2803 49.0123C37.5382 47.5905 36.8162 45.9929 35.8362 44.4004C35.3204 43.5111 34.7012 42.6115 34.3401 41.7223C34.0306 41.076 33.8243 40.4451 34.0822 39.8454C34.2885 39.2973 34.8041 38.8165 35.681 38.3408C36.2484 38.0616 36.4034 37.4101 36.1455 36.8879C35.8875 36.3606 35.2171 36.159 34.7013 36.4382Z" fill="black"/>
</svg>
