<svg width="56" height="45" viewBox="0 0 56 45" fill="none" xmlns="http://www.w3.org/2000/svg">
<path fill-rule="evenodd" clip-rule="evenodd" d="M8.30042 2.91895V17.8999C8.30042 18.4948 7.83485 18.981 7.26582 18.981C6.64506 18.981 6.17969 18.4948 6.17969 17.8999V1.83774C6.17969 1.24285 6.64506 0.761719 7.26582 0.761719H51.7537C52.3227 0.761719 52.7883 1.24285 52.7883 1.83774V17.8999C52.7883 18.4948 52.3227 18.981 51.7537 18.981C51.1329 18.981 50.6676 18.4948 50.6676 17.8999V2.91895H8.30042Z" fill="black"/>
<path fill-rule="evenodd" clip-rule="evenodd" d="M2.90128 28.3563V43.4823C2.90128 44.0772 2.43591 44.5581 1.81515 44.5581C1.24612 44.5581 0.728516 44.0772 0.728516 43.4823V27.2752C0.728516 26.6803 1.24612 26.1992 1.81515 26.1992H54.7865C55.3555 26.1992 55.8731 26.6803 55.8731 27.2752V43.4823C55.8731 44.0772 55.3555 44.5581 54.7865 44.5581C54.1657 44.5581 53.7003 44.0772 53.7003 43.4823V28.3563H2.90128Z" fill="black"/>
<path fill-rule="evenodd" clip-rule="evenodd" d="M1.81515 42.8823H54.7865C55.3555 42.8823 55.8731 42.4011 55.8731 41.8062C55.8731 41.2113 55.3555 40.7305 54.7865 40.7305H1.81515C1.24612 40.7305 0.728516 41.2113 0.728516 41.8062C0.728516 42.4011 1.24612 42.8823 1.81515 42.8823Z" fill="black"/>
<path fill-rule="evenodd" clip-rule="evenodd" d="M2.76562 29.4256C4.73136 24.8475 7.78354 22.411 11.6633 21.4385C12.4392 21.2419 13.215 21.1384 14.0427 21.1384C17.8707 21.0867 39.132 21.0868 44.7706 21.0868C46.219 21.0868 47.6673 21.4385 48.9605 22.1162C51.9608 23.6733 53.2544 26.3787 53.6682 29.1669C53.7717 29.7515 54.2887 30.1602 54.9095 30.0774C55.4785 29.9895 55.8924 29.4412 55.789 28.8515C55.3234 25.4218 53.6681 22.1214 49.9436 20.2022C48.3399 19.3694 46.5811 18.9297 44.7706 18.9297C39.132 18.9297 17.8192 18.9296 13.9912 18.9865C13.06 18.9865 12.0773 19.1106 11.0945 19.3486C6.64568 20.4763 3.02437 23.2698 0.799975 28.5876C0.593055 29.136 0.851503 29.7722 1.3688 29.9998C1.93784 30.2326 2.5587 29.9739 2.76562 29.4256Z" fill="black"/>
<path fill-rule="evenodd" clip-rule="evenodd" d="M33.7326 10.7733V18.4294C33.7326 19.0295 33.267 19.5106 32.698 19.5106C32.0772 19.5106 31.6113 19.0295 31.6113 18.4294V9.10763C31.6113 8.73 31.8182 8.38339 32.1286 8.18682C32.439 7.99024 32.8529 7.97999 33.1632 8.15588C36.5774 9.95091 39.94 9.60429 43.3542 8.12481C43.6645 7.97479 44.0786 8.01096 44.3372 8.20753C44.6476 8.40928 44.8545 8.74552 44.8545 9.10763V18.4294C44.8545 19.0295 44.3887 19.5106 43.7679 19.5106C43.1989 19.5106 42.6818 19.0295 42.6818 18.4294V10.6906C39.7332 11.7149 36.7329 11.8855 33.7326 10.7733Z" fill="black"/>
<path fill-rule="evenodd" clip-rule="evenodd" d="M15.6181 10.7985V18.4286C15.6181 19.0287 15.1522 19.5098 14.5314 19.5098C13.9624 19.5098 13.4453 19.0287 13.4453 18.4286V9.10687C13.4453 8.72924 13.652 8.37747 14.0141 8.18606C14.3245 7.98949 14.7384 7.97925 15.0487 8.1603C18.3077 9.92947 21.6185 9.92947 24.8775 8.1603C25.2396 7.97925 25.602 7.98949 25.9641 8.18606C26.2745 8.37747 26.4814 8.72924 26.4814 9.10687V18.4286C26.4814 19.0287 25.9638 19.5098 25.3948 19.5098C24.774 19.5098 24.3086 19.0287 24.3086 18.4286V10.7985C21.4117 11.9469 18.515 11.9469 15.6181 10.7985Z" fill="black"/>
</svg>
