<svg width="66" height="62" viewBox="0 0 66 62" fill="none" xmlns="http://www.w3.org/2000/svg">
<path fill-rule="evenodd" clip-rule="evenodd" d="M54.6288 59.8328V32.8438H56.8025V60.9137C56.8025 61.5112 56.3369 61.9996 55.7159 61.9996H10.1731C9.60377 61.9996 9.08594 61.5112 9.08594 60.9137V32.8438H11.2597V59.8328H54.6288Z" fill="black"/>
<path fill-rule="evenodd" clip-rule="evenodd" d="M32.5012 2.63988L1.86312 33.9782C1.44909 34.4043 0.776299 34.4094 0.31052 33.9937C-0.103507 33.5728 -0.103507 32.8869 0.31052 32.4608L31.7249 0.322388C31.9319 0.11454 32.2424 -0.00503357 32.5012 0.000162633C32.8117 0.000162633 33.0704 0.119746 33.2775 0.332791L41.9719 9.46763C42.3859 9.90411 42.3339 10.5848 41.9199 11.0005C41.5058 11.411 40.8333 11.3955 40.4193 10.9642L32.5012 2.63988Z" fill="black"/>
<path fill-rule="evenodd" clip-rule="evenodd" d="M42.1386 12.8183L42.8628 13.5249C43.3286 13.9354 44.0014 13.9198 44.4154 13.4833C44.8295 13.052 44.7779 12.3662 44.3639 11.9557L43.6391 11.2491C43.1733 10.8334 42.5005 10.8541 42.0865 11.2853C41.6725 11.7218 41.7245 12.4078 42.1386 12.8183Z" fill="black"/>
<path fill-rule="evenodd" clip-rule="evenodd" d="M45.773 16.4675L51.2587 21.7156C51.7245 22.1261 52.3973 22.1053 52.8113 21.674C53.2253 21.2375 53.1738 20.5568 52.7597 20.1411L47.2741 14.893C46.8083 14.4825 46.1355 14.5032 45.7215 14.9345C45.3075 15.3658 45.359 16.0518 45.773 16.4675Z" fill="black"/>
<path fill-rule="evenodd" clip-rule="evenodd" d="M53.0613 23.7682L64.1883 34.3736C64.6023 34.7841 65.3266 34.7686 65.6888 34.3321C66.1029 33.9008 66.1029 33.2148 65.6888 32.8043L54.5619 22.1937C54.0961 21.7832 53.4233 21.8041 53.0093 22.2353C52.5952 22.6718 52.5955 23.3525 53.0613 23.7682Z" fill="black"/>
<path fill-rule="evenodd" clip-rule="evenodd" d="M17.7994 32.4429V58.8865H14.5391V30.8166C14.5391 29.9228 15.2637 29.1953 16.1953 29.1953H48.955C49.8348 29.1953 50.5592 29.9228 50.5592 30.8166V58.8865H47.3504V32.4429H17.7994Z" fill="black"/>
<path fill-rule="evenodd" clip-rule="evenodd" d="M16.3574 38.6577H49.1171V36.4961H16.3574V38.6577Z" fill="black"/>
<path fill-rule="evenodd" clip-rule="evenodd" d="M49.1171 40.1445H16.3574V42.3061H49.1171V40.1445Z" fill="black"/>
<path fill-rule="evenodd" clip-rule="evenodd" d="M16.3574 49.6069H48.8584V47.4453H16.3574V49.6069Z" fill="black"/>
<path fill-rule="evenodd" clip-rule="evenodd" d="M47.8182 54.7422H15.6281C15.0071 54.7422 14.541 55.2253 14.541 55.8229C14.541 56.4205 15.0071 56.909 15.6281 56.909H47.8182C48.3875 56.909 48.9054 56.4205 48.9054 55.8229C48.9054 55.2253 48.3875 54.7422 47.8182 54.7422Z" fill="black"/>
</svg>
