<svg width="48" height="59" viewBox="0 0 48 59" fill="none" xmlns="http://www.w3.org/2000/svg">
<path fill-rule="evenodd" clip-rule="evenodd" d="M1.07607 16.6251H46.9244C47.4879 16.6251 48 16.146 48 15.5535C48 14.9609 47.4879 14.4766 46.9244 14.4766H1.07607C0.512572 14.4766 0 14.9609 0 15.5535C0 16.146 0.512572 16.6251 1.07607 16.6251Z" fill="black"/>
<path fill-rule="evenodd" clip-rule="evenodd" d="M14.9013 23.748C17.5735 21.5604 20.929 20.2479 24.5954 20.2479C33.0469 20.2479 39.883 27.1294 39.883 35.6111C39.883 44.0866 33.0469 50.9746 24.5954 50.9746C16.2061 50.9746 9.30842 44.0866 9.30842 35.6111C9.30842 32.961 9.992 30.4671 11.1727 28.292C11.4834 27.7732 11.2969 27.1231 10.7376 26.8356C10.2405 26.5544 9.557 26.7482 9.30842 27.267C7.94127 29.7484 7.19531 32.5922 7.19531 35.6111C7.19531 45.2742 15.0254 53.1184 24.5954 53.1184C34.2276 53.1184 41.9955 45.2742 41.9955 35.6111C41.9955 25.9481 34.2276 18.0977 24.5954 18.0977C20.4318 18.0977 16.5791 19.5978 13.534 22.0917C13.099 22.4667 13.0368 23.148 13.4096 23.6042C13.7825 24.0605 14.4663 24.123 14.9013 23.748Z" fill="black"/>
<path fill-rule="evenodd" clip-rule="evenodd" d="M12.7104 28.0674C12.959 27.7424 13.2075 27.4298 13.5182 27.1236C13.891 26.6798 13.8294 26.0048 13.3944 25.6048C12.9594 25.211 12.2756 25.2484 11.9027 25.6859C11.592 26.036 11.281 26.3922 11.0325 26.761C10.6596 27.236 10.7222 27.9112 11.2194 28.2674C11.6544 28.63 12.3376 28.5362 12.7104 28.0674Z" fill="black"/>
<path fill-rule="evenodd" clip-rule="evenodd" d="M24.0418 25.332C17.7245 25.332 12.5918 30.4906 12.5918 36.8484C12.5918 43.2022 17.7245 48.3647 24.0418 48.3647C28.2664 48.3647 31.9383 46.0774 33.9124 42.6701C34.2283 42.1539 34.2679 41.7131 34.1889 41.3278C34.1494 40.9625 33.9519 40.621 33.636 40.2994C33.3991 40.0611 33.0835 39.8228 32.7677 39.5249C32.1754 39.0365 31.5832 38.3217 31.5832 36.8484C31.5832 35.9032 32.0174 35.3354 32.4912 34.9065C32.965 34.4935 33.4389 34.1758 33.7547 33.8621C34.1496 33.4729 34.3467 33.056 34.4256 32.6231C34.4651 32.2856 34.4258 31.9162 34.1889 31.5112C32.2937 27.8379 28.4638 25.332 24.0418 25.332ZM32.2148 32.3372C30.6355 29.4422 27.5557 27.4765 24.0418 27.4765C18.909 27.4765 14.724 31.674 14.724 36.8484C14.724 42.0188 18.909 46.2164 24.0418 46.2164C27.4373 46.2164 30.3591 44.4134 32.0174 41.721C31.8594 41.582 31.5832 41.3597 31.3858 41.1929C30.4777 40.4066 29.451 39.2589 29.451 36.8444C29.451 34.8469 30.5171 33.7549 31.5042 32.9527C31.7411 32.7542 32.0568 32.4802 32.2148 32.3372Z" fill="black"/>
<path fill-rule="evenodd" clip-rule="evenodd" d="M22.4213 29.0595C16.479 31.95 16.5305 41.044 22.4728 43.512C23.0363 43.7387 23.6509 43.476 23.9071 42.9299C24.112 42.3786 23.8558 41.75 23.2923 41.5284C18.9892 39.7302 18.989 33.099 23.3433 30.9968C23.9068 30.7392 24.1117 30.0951 23.8556 29.5644C23.5994 29.0285 22.9848 28.8018 22.4213 29.0595Z" fill="black"/>
<path fill-rule="evenodd" clip-rule="evenodd" d="M47.9652 2.7276C47.9652 1.22497 46.7918 0 45.276 0H2.7379C1.22217 0 0 1.22497 0 2.7276V56.2779C0 57.7805 1.22217 59 2.7379 59H45.276C46.7918 59 47.9652 57.7805 47.9652 56.2779V2.7276ZM45.8629 2.7276V56.2779C45.8629 56.5936 45.5694 56.8548 45.276 56.8548H2.7379C2.39564 56.8548 2.15107 56.5936 2.15107 56.2779V2.7276C2.15107 2.40639 2.39564 2.15047 2.7379 2.15047H45.276C45.5694 2.15047 45.8629 2.40639 45.8629 2.7276Z" fill="black"/>
<path fill-rule="evenodd" clip-rule="evenodd" d="M19.7368 5.72911C19.7368 4.56557 18.7953 3.62109 17.6447 3.62109H5.68976C4.53911 3.62109 3.59766 4.56557 3.59766 5.72911V9.64753C3.59766 10.8116 4.53911 11.7561 5.68976 11.7561H17.6447C18.7953 11.7561 19.7368 10.8116 19.7368 9.64753V5.72911ZM5.73457 5.76753V9.6091H17.5999V5.76753H5.73457Z" fill="black"/>
</svg>
