<svg width="51" height="61" viewBox="0 0 51 61" fill="none" xmlns="http://www.w3.org/2000/svg">
<path d="M49.8008 27.3354V18.1953" stroke="black" stroke-width="0.00231848" stroke-miterlimit="1.5" stroke-linecap="round" stroke-linejoin="round"/>
<path d="M49.8008 16.0025V14.5547" stroke="black" stroke-width="0.00231848" stroke-miterlimit="1.5" stroke-linecap="round" stroke-linejoin="round"/>
<path fill-rule="evenodd" clip-rule="evenodd" d="M51 12.592V7.20797C51 3.23045 47.6908 0 43.699 0H7.35327C3.30897 0 0 3.23045 0 7.20797V43.0984C0 47.0759 3.30897 50.3065 7.35327 50.3065H43.699C47.6908 50.3065 51 47.0759 51 43.0984V33.0309C51 32.4384 50.475 31.9542 49.8972 31.9542C49.2669 31.9542 48.7939 32.4384 48.7939 33.0309V43.0984C48.7939 45.8806 46.4828 48.1425 43.699 48.1425H7.35327C4.51701 48.1425 2.20557 45.8806 2.20557 43.0984V7.20797C2.20557 4.42061 4.51701 2.15876 7.35327 2.15876H43.699C46.4828 2.15876 48.7939 4.42061 48.7939 7.20797V12.592C48.7939 13.1897 49.2669 13.6689 49.8972 13.6689C50.475 13.6689 51 13.1897 51 12.592Z" fill="black"/>
<path fill-rule="evenodd" clip-rule="evenodd" d="M17.7049 10.9143H27.7895C29.2076 10.9039 30.678 11.2768 31.9385 12.0021C34.8273 13.7168 36.4556 17.1152 36.5082 20.5343C36.5607 23.9741 34.9851 27.4034 31.6236 29.1337C30.3105 29.8019 28.8924 30.149 27.4217 30.149C25.5834 30.1542 20.9611 30.1542 18.8077 30.1542V43.359C18.8077 43.9547 18.3351 44.4365 17.7049 44.4365C17.1271 44.4365 16.6016 43.9547 16.6016 43.359V11.9918V11.9763V11.9555V11.9348V11.9192V11.8985L16.6544 11.8778V11.8674V11.8468C16.7069 11.3184 17.1796 10.9143 17.7049 10.9143ZM18.8077 27.994C20.9611 27.994 25.5834 27.994 27.4217 27.9888C28.5247 27.9888 29.6275 27.7246 30.6254 27.2169C33.1991 25.8804 34.3549 23.2124 34.3549 20.5601C34.3024 17.887 33.0942 15.1932 30.8357 13.8671C29.8903 13.3387 28.8399 13.0641 27.7895 13.0693H18.8077V27.994Z" fill="black"/>
<path fill-rule="evenodd" clip-rule="evenodd" d="M23.9785 54.5742V60.9981H27.2879V54.5742H23.9785Z" fill="black"/>
</svg>
