<svg width="56" height="57" viewBox="0 0 56 57" fill="none" xmlns="http://www.w3.org/2000/svg">
<path fill-rule="evenodd" clip-rule="evenodd" d="M4.42433 43.8327C1.60868 39.4057 0 34.1418 0 28.5C0 12.7713 12.5583 0 28.022 0C35.3517 0 42.0558 2.9028 47.0614 7.64824L47.106 7.6619C47.106 7.66645 47.106 7.67557 47.106 7.68012C52.5585 12.8851 56 20.2876 56 28.5C56 44.2332 43.4411 57 28.022 57C18.1002 57 9.38523 51.7586 4.42433 43.8556V43.8465V43.8327ZM46.4356 9.62744L6.4355 43.5188C11.1282 50.5118 19.0388 55.1072 28.022 55.1072C42.4131 55.1072 54.1228 43.1867 54.1228 28.5C54.1228 21.1293 51.173 14.4502 46.4356 9.62744ZM45.0503 8.33071C40.4469 4.32233 34.5025 1.89723 28.022 1.89723C13.5863 1.89723 1.87675 13.8178 1.87675 28.5C1.87675 33.3865 3.17284 37.968 5.45217 41.9081L45.0503 8.33071Z" fill="black"/>
<path fill-rule="evenodd" clip-rule="evenodd" d="M19.5436 7.39005V4.14143C19.5436 3.7001 19.8562 3.31802 20.2585 3.21792C20.7054 3.12237 21.1525 3.33617 21.3313 3.73655L23.8788 9.23729C27.3649 11.7715 28.4821 15.5069 27.8117 20.175C32.2363 21.358 35.4541 23.3643 37.3312 26.2398C39.253 29.1744 39.7893 33.0463 38.672 37.9874C41.7558 39.5525 45.5546 38.6062 50.4261 34.9254C50.7389 34.6934 51.186 34.6798 51.4989 34.8845C51.8117 35.0893 51.9903 35.4758 51.9009 35.858C51.0964 40.517 49.2194 43.4609 46.4037 44.6302C43.8116 45.7085 40.3257 45.2989 35.8564 43.0968C35.4095 43.7702 34.6495 44.3207 33.5768 44.7075C30.6271 45.7858 25.2194 45.6993 20.3479 44.9849C19.9904 44.9304 19.6775 44.6575 19.5881 44.2889C19.3199 43.338 19.4095 42.5555 19.767 41.9185C20.0799 41.2906 20.7057 40.7765 21.6442 40.4398C22.2699 40.2214 23.0744 40.0713 24.1023 39.9939C23.2978 38.9065 22.806 37.901 22.4931 36.9728L17.8898 44.5482C17.7558 44.803 17.4878 44.9668 17.1749 44.9941C15.9682 45.0987 15.0295 45.126 14.3144 45.0305C12.8395 44.8439 12.0796 44.2297 11.6774 43.024C11.6327 42.9512 11.6328 42.8785 11.6328 42.8011C11.5435 42.1551 11.767 41.4999 12.3927 40.8948C12.9737 40.3534 13.9121 39.812 15.3423 39.3115L16.1466 32.2956C14.3142 27.3636 14.4486 22.3407 16.862 17.2131C15.119 17.8728 13.6439 17.9502 12.4372 17.4315C11.1411 16.8809 10.1131 15.6706 9.44272 13.6187C9.39803 13.3685 9.39811 13.0955 9.53219 12.8635C9.66627 12.6314 9.88965 12.4676 10.1131 12.4039C11.588 12.0445 12.9288 10.6113 14.4484 9.44201C15.968 8.24541 17.6218 7.2945 19.5436 7.39005ZM21.4207 8.32733V8.49106C21.4207 8.7868 21.2863 9.0644 21.0628 9.24184C20.8394 9.41929 20.5266 9.48292 20.2585 9.40557C18.4261 8.9233 16.9512 9.86972 15.5657 10.948C14.1802 12.0218 12.8842 13.2365 11.5434 13.8826C11.9456 14.7926 12.4822 15.3931 13.1526 15.6843C13.7783 15.9573 14.538 15.9437 15.3872 15.7253C16.3705 15.4705 17.443 14.9336 18.6497 14.1646C19.0072 13.9281 19.4987 13.9827 19.8115 14.2966C20.1244 14.6105 20.169 15.0974 19.9455 15.475C16.4595 21.0531 15.8787 26.4946 17.9793 31.8224C18.024 31.9726 18.0685 32.1273 18.0238 32.2865L17.0854 40.135C17.0408 40.5036 16.8171 40.8128 16.4596 40.9266C15.2976 41.2951 14.4483 41.6682 13.912 42.0731C13.7779 42.1914 13.6439 42.3005 13.5545 42.4188C13.5099 42.4598 13.5098 42.4961 13.4651 42.5325C13.6438 42.9193 14.0016 43.0832 14.5379 43.1515C15.0742 43.2197 15.7446 43.2015 16.549 43.1424L21.2863 35.3395C21.912 32.3139 23.4317 30.594 25.8451 30.1755C26.292 30.0981 26.6941 30.3574 26.8729 30.7942C27.007 31.2309 26.8282 31.7132 26.426 31.9362C25.264 32.6004 24.4597 33.3694 24.1468 34.3385C23.6999 35.8854 24.5045 37.7826 26.6944 40.2576C26.9179 40.5397 27.0072 40.9401 26.8284 41.2814C26.6943 41.6226 26.3366 41.8411 25.9791 41.8365C24.3254 41.8183 23.1188 41.9367 22.2696 42.2324C21.8227 42.378 21.5546 42.5508 21.3758 42.8238C21.3311 42.9375 21.2863 43.0651 21.2863 43.2061C25.0405 43.7021 28.9738 43.8294 31.7001 43.2652C32.5939 43.0878 33.3089 42.842 33.8452 42.5008C34.2028 42.2733 34.426 42.0094 34.4707 41.659C34.5154 41.3542 34.7389 41.0903 35.0071 40.9492C35.2752 40.8127 35.5883 40.8128 35.8564 40.9539C40.0575 43.2106 43.3201 43.8703 45.6888 42.8784C47.5212 42.1232 48.7278 40.4079 49.5322 37.8555C44.4373 41.0995 40.3703 41.3315 37.1077 39.2659C36.7502 39.0475 36.5714 38.6244 36.6608 38.224C37.8675 33.5878 37.5547 29.9843 35.7669 27.2863C34.0239 24.5792 30.8507 22.8229 26.5155 21.8083C26.0238 21.69 25.711 21.2032 25.8451 20.7028C26.6495 16.3713 25.845 12.8998 22.6271 10.6522C22.493 10.5567 22.404 10.4294 22.3146 10.2792L21.4207 8.32733Z" fill="black"/>
</svg>
