<svg width="125" height="32" viewBox="0 0 125 32" fill="none" xmlns="http://www.w3.org/2000/svg">
<g clip-path="url(#clip0)">
<path d="M0 0H4.34742V13.6453H4.70955L18.8812 0H24.9485L9.46401 14.5818L25.99 31.5712H19.6513L4.70955 15.7856H4.34742V31.5693H0V0Z" fill="#5A1CB9"/>
<path d="M30.2284 20.1301C30.2246 21.1333 30.3882 22.13 30.7122 23.0776C30.9946 23.9439 31.4585 24.7377 32.0718 25.4043C32.6646 26.0727 33.4011 26.5933 34.224 26.9256C35.1231 27.3321 36.0998 27.5305 37.0836 27.5066C38.0674 27.5305 39.0441 27.3321 39.9432 26.9256C40.7662 26.5933 41.5026 26.0727 42.0954 25.4043C42.7119 24.7391 43.179 23.946 43.4644 23.0795C43.7884 22.1319 43.952 21.1352 43.9482 20.132C43.9486 19.1135 43.7852 18.1018 43.4644 17.1369C43.1598 16.2811 42.697 15.4923 42.101 14.8131C41.4846 14.1725 40.7543 13.6563 39.9488 13.2917C39.0402 12.9216 38.0681 12.7392 37.0892 12.7555C36.1104 12.7392 35.1383 12.9216 34.2296 13.2917C33.4242 13.6563 32.6939 14.1725 32.0775 14.8131C31.4814 15.4923 31.0187 16.2811 30.7141 17.1369C30.3929 18.1011 30.2289 19.1121 30.2284 20.1301ZM26.0055 20.1301C25.9778 18.6363 26.2783 17.1552 26.8851 15.7943C27.4319 14.4762 28.2233 13.2772 29.216 12.2629C30.2205 11.23 31.4167 10.4098 32.7353 9.84976C34.1162 9.27292 35.5972 8.98416 37.0902 9.00067C38.5832 8.98416 40.0641 9.27292 41.4451 9.84976C42.7637 10.4098 43.9599 11.23 44.9644 12.2629C45.9704 13.2754 46.7765 14.4741 47.3393 15.7943C47.911 17.165 48.1956 18.6415 48.1749 20.1301C48.1956 21.6186 47.911 23.0952 47.3393 24.4658C46.7971 25.7979 45.9869 27.0001 44.9606 27.9953C43.9541 29.0146 42.7577 29.8198 41.4413 30.3638C40.0698 30.9763 38.5844 31.2811 37.0864 31.2576C35.5885 31.2811 34.1031 30.9763 32.7315 30.3638C31.4155 29.8197 30.2194 29.0145 29.2132 27.9953C28.2012 26.9974 27.4068 25.7946 26.8813 24.4649C26.2747 23.1043 25.9742 21.6235 26.0017 20.1301H26.0055Z" fill="#5A1CB9"/>
<path d="M99.7563 31.1355H95.7982V28.0928H95.7102C94.9242 29.2438 93.8443 30.1553 92.5867 30.7295C91.2911 31.3415 89.8805 31.6616 88.4517 31.6679C86.9573 31.7019 85.4728 31.4125 84.0968 30.8188C82.8281 30.2844 81.688 29.4777 80.7544 28.4541C79.8162 27.4317 79.0849 26.2318 78.6022 24.9228C78.1011 23.5187 77.8477 22.0359 77.8536 20.5423C77.8515 19.0346 78.1048 17.5377 78.6022 16.1172C79.0849 14.8081 79.8162 13.6083 80.7544 12.5858C81.7017 11.5889 82.839 10.7985 84.0968 10.263C85.4728 9.66932 86.9573 9.37988 88.4517 9.41388C89.9104 9.40557 91.3526 9.72608 92.6747 10.3523C93.9062 10.9304 94.9566 11.8429 95.7102 12.989H95.7982V0.0273438H99.7573L99.7563 31.1355ZM88.9355 27.9179C89.9193 27.9418 90.896 27.7434 91.7951 27.3369C92.618 27.0046 93.3545 26.484 93.9473 25.8156C94.5616 25.1502 95.0268 24.3574 95.3107 23.4918C95.6347 22.5441 95.7983 21.5475 95.7944 20.5442C95.7948 19.5258 95.6314 18.5141 95.3107 17.5491C95.0061 16.6933 94.5433 15.9046 93.9473 15.2253C93.3308 14.5847 92.6006 14.0685 91.7951 13.704C90.8865 13.3338 89.9143 13.1515 88.9355 13.1677C87.9567 13.1515 86.9845 13.3338 86.0759 13.704C85.2704 14.0685 84.5402 14.5847 83.9237 15.2253C83.3277 15.9046 82.865 16.6933 82.5604 17.5491C82.2396 18.5141 82.0762 19.5258 82.0766 20.5442C82.0727 21.5475 82.2363 22.5441 82.5604 23.4918C82.8433 24.3575 83.3075 25.1506 83.9209 25.8166C84.5137 26.485 85.2502 27.0056 86.0731 27.3379C86.9731 27.7444 87.9509 27.9425 88.9355 27.9179Z" fill="#5A1CB9"/>
<path d="M107.059 20.5441C107.055 21.5474 107.218 22.544 107.542 23.4917C107.825 24.358 108.289 25.1517 108.902 25.8184C109.495 26.4868 110.231 27.0074 111.054 27.3397C111.953 27.7461 112.93 27.9446 113.914 27.9206C114.897 27.9446 115.874 27.7461 116.773 27.3397C117.596 27.0074 118.333 26.4868 118.926 25.8184C119.542 25.1532 120.009 24.36 120.294 23.4936C120.619 22.5459 120.782 21.5493 120.778 20.546C120.779 19.5276 120.615 18.5159 120.294 17.5509C119.99 16.6951 119.527 15.9064 118.931 15.2271C118.315 14.5865 117.584 14.0703 116.779 13.7058C115.87 13.3356 114.898 13.1533 113.919 13.1695C112.941 13.1533 111.968 13.3356 111.06 13.7058C110.254 14.0703 109.524 14.5865 108.908 15.2271C108.312 15.9064 107.849 16.6951 107.544 17.5509C107.223 18.5151 107.059 19.5262 107.059 20.5441ZM102.836 20.5441C102.808 19.0504 103.108 17.5692 103.715 16.2084C104.262 14.8902 105.053 13.6913 106.046 12.677C107.051 11.6441 108.247 10.8238 109.565 10.2638C110.946 9.68698 112.427 9.39823 113.92 9.41473C115.413 9.39823 116.894 9.68698 118.275 10.2638C119.594 10.8238 120.79 11.6441 121.794 12.677C122.801 13.6895 123.607 14.8881 124.169 16.2084C124.741 17.579 125.026 19.0556 125.005 20.5441C125.026 22.0327 124.741 23.5093 124.169 24.8799C123.627 26.212 122.817 27.4142 121.791 28.4094C120.784 29.4287 119.588 30.2339 118.271 30.7779C116.9 31.3903 115.414 31.6952 113.917 31.6716C112.419 31.6952 110.933 31.3903 109.562 30.7779C108.246 30.2338 107.049 29.4286 106.043 28.4094C105.031 27.4114 104.237 26.2087 103.711 24.8789C103.105 23.5184 102.804 22.0375 102.832 20.5441H102.836Z" fill="#5A1CB9"/>
<path d="M60.3541 9.98438L63.1613 12.3614L59.4184 16.6401L58.0148 20.9189L57.5469 29.9517H52.8683L52.4004 19.968L54.2719 16.1647L60.3541 9.98438Z" fill="#00D789"/>
<path d="M57.8502 30.193H54.0764C53.6943 30.1508 53.3438 29.9577 53.1005 29.6553C52.8572 29.3529 52.7405 28.9656 52.7757 28.5766V19.4773C52.758 18.3502 53.1608 17.258 53.9032 16.4204C55.5604 14.6423 58.1992 11.6434 59.6823 10.0498C59.7881 9.92625 59.9189 9.82716 60.0656 9.75926C60.2123 9.69136 60.3717 9.65625 60.5329 9.65625C60.6941 9.65625 60.8535 9.69136 61.0002 9.75926C61.147 9.82716 61.2777 9.92625 61.3835 10.0498L63.485 12.3602" stroke="#5A1CB9" stroke-width="3" stroke-miterlimit="1.5" stroke-linecap="round" stroke-linejoin="round"/>
<path d="M52.7715 20.4486V9.34766" stroke="#5A1CB9" stroke-width="3" stroke-miterlimit="1.5" stroke-linecap="round" stroke-linejoin="round"/>
<path d="M57.8463 30.0774V20.4132C57.8285 19.286 58.2313 18.1939 58.9738 17.3562L65.1693 10.7091C65.2754 10.5857 65.4062 10.4869 65.553 10.4192C65.6998 10.3515 65.8591 10.3164 66.0203 10.3164C66.1815 10.3164 66.3409 10.3515 66.4877 10.4192C66.6345 10.4869 66.7653 10.5857 66.8714 10.7091L73.0678 17.3562C73.8079 18.195 74.209 19.2868 74.1907 20.4132V30.0774" stroke="#5A1CB9" stroke-width="3" stroke-miterlimit="1.5" stroke-linecap="round" stroke-linejoin="round"/>
<path d="M60.9648 16.2773L74.0464 29.9825" stroke="#5A1CB9" stroke-width="3" stroke-miterlimit="1.5" stroke-linecap="round" stroke-linejoin="round"/>
<path d="M63.5 12.5L74 24" stroke="#5A1CB9" stroke-width="3" stroke-miterlimit="1.5" stroke-linecap="round" stroke-linejoin="round"/>
</g>
<defs>
<clipPath id="clip0">
<rect width="125" height="32" fill="white"/>
</clipPath>
</defs>
</svg>
